<?xml version="1.0" encoding="UTF-8" standalone="no"?>
<!DOCTYPE svg PUBLIC "-//W3C//DTD SVG 1.1//EN" "http://www.w3.org/Graphics/SVG/1.1/DTD/svg11.dtd">
<svg xmlns="http://www.w3.org/2000/svg" version="1.1" viewBox="0.00 0.00 1448.00 1448.00">
<g stroke-width="2.00" fill="none" stroke-linecap="butt">
<path stroke="#428576" vector-effect="non-scaling-stroke" d="
  M 580.91 293.78
  L 367.61 720.04"
/>
<path stroke="#428576" vector-effect="non-scaling-stroke" d="
  M 1078.56 719.81
  L 865.17 293.69"
/>
</g>
<path fill="#35495e" d="
  M 580.91 293.78
  L 367.61 720.04
  L 12.73 10.29
  A 0.55 0.55 0.0 0 1 13.22 9.49
  L 438.05 9.50
  A 1.16 1.15 76.6 0 1 439.08 10.14
  L 580.91 293.78
  Z"
/>
<path fill="#35495e" d="
  M 1078.56 719.81
  L 865.17 293.69
  L 1007.04 10.06
  A 1.04 1.01 13.0 0 1 1007.96 9.50
  L 1432.94 9.49
  Q 1433.91 9.49 1433.48 10.36
  L 1078.56 719.81
  Z"
/>
<path fill="#4fc08d" d="
  M 580.91 293.78
  L 722.81 577.25
  A 0.29 0.29 0.0 0 0 723.33 577.25
  L 865.17 293.69
  L 1078.56 719.81
  L 1433.48 1430.35
  Q 1433.78 1430.94 1433.12 1430.94
  L 1008.24 1430.94
  A 1.67 1.66 78.5 0 1 1006.71 1429.92
  Q 1005.92 1428.05 1004.93 1426.06
  Q 930.41 1276.73 865.48 1147.63
  Q 863.23 1143.18 861.08 1138.85
  Q 794.65 1005.66 723.32 863.29
  Q 723.05 862.75 722.78 863.29
  L 439.06 1430.25
  A 1.26 1.25 -76.5 0 1 437.94 1430.94
  L 13.22 1430.94
  Q 12.32 1430.94 12.73 1430.14
  L 367.61 720.04
  L 580.91 293.78
  Z"
/>
</svg>
