<?xml version="1.0" encoding="UTF-8"?>
<svg width="319px" height="319px" viewBox="0 0 319 319" version="1.1" xmlns="http://www.w3.org/2000/svg" xmlns:xlink="http://www.w3.org/1999/xlink">
    <title>Artboard</title>
    <g id="Artboard" stroke="none" stroke-width="1" fill="none" fill-rule="evenodd">
        <path d="M85.24831,50.0274851 L86.5188726,50.0660506 C92.3818484,50.2605496 97.3463001,50.6821084 102.668341,52.3256305 C102.908747,52.4008012 103.072143,52.6216274 103.071375,52.8703208 L103.086302,86.9992725 C103.085277,87.1695903 102.99884,87.3280313 102.856168,87.4211179 C102.713495,87.5142045 102.533623,87.5295167 102.377261,87.4618862 C69.9927216,73.2029385 36.8394321,95.0875505 37.4290561,130.276037 C37.7275999,148.041895 49.2140728,164.240835 65.3130474,171.217348 C73.3029018,174.673174 88.7856647,174.685535 97.1526164,174.07242 C99.5469719,173.896966 101.367885,173.412436 102.256306,173.148416 C142.137347,154.310138 155.668396,103.43853 136.232128,63.9133572 C136.152033,63.7459062 136.185599,63.5462223 136.316044,63.4141422 C136.446488,63.2835575 136.645784,63.2459647 136.814289,63.3238979 C138.65165,64.2236683 140.547119,65.1092387 142.451324,65.9937079 L144.737402,67.0553809 C148.543987,68.8267494 152.306517,70.614672 155.630012,72.523941 C171.627829,81.7236557 185.958817,93.070968 198.622977,106.565878 L201.499608,109.645566 C208.085347,116.657041 221.087483,130.236789 240.506016,150.384809 C245.111054,155.160176 250.23108,160.875694 255.194371,166.039059 C268.733333,180.126392 282.262343,194.223674 295.781401,208.330904 C301.453734,214.255344 307.148457,220.75432 312.84318,226.947374 C313.057136,227.181168 313.05216,227.412475 312.828252,227.641295 C300.573029,240.146787 293.188854,252.75629 280.679869,265.008092 C279.381203,266.276548 278.057659,267.522621 276.709236,268.746309 C276.525134,268.915436 276.30869,269 276.059903,269 L212.096938,268.952182 C200.514228,268.978328 190.209741,268.995203 181.183476,268.999123 L177.255965,269 L164.284664,268.99317 C155.274905,268.980763 148.235053,268.951895 143.165108,268.906567 L142.822483,268.903451 C115.602751,268.64976 90.5698533,252.532896 77.2771904,228.827675 C73.0669313,221.311455 70.151451,213.419472 68.5307493,205.151727 C54.2890719,202.802616 41.4534906,196.465527 30.3013227,186.767137 C15.2621786,173.687108 7.3880857,155.37656 5.36545142,135.394633 C3.12637289,113.263791 11.3139367,91.0135655 26.1441002,74.6355486 C40.6757199,58.5858383 63.6113478,49.4305642 85.24831,50.0274851 Z M165.601783,171.852412 C160.700048,185.097062 167.426003,199.705628 180.624624,204.481559 C193.823244,209.25749 208.496482,202.392237 213.398217,189.147588 C218.299952,175.902938 211.573997,161.294372 198.375376,156.518441 C185.176756,151.74251 170.503518,158.607763 165.601783,171.852412 Z M88.4999908,144.386257 C88.654082,144.479296 88.7483945,144.64602 88.7487361,144.825983 L87.994913,144.370831 C88.1543978,144.287369 88.3458995,144.293218 88.4999908,144.386257 Z" id="Combined-Shape" fill="#CEA6FE" fill-rule="nonzero"></path>
    </g>
</svg>