<?xml version="1.0" encoding="UTF-8" standalone="no"?>
<!DOCTYPE svg PUBLIC "-//W3C//DTD SVG 1.1//EN" "http://www.w3.org/Graphics/SVG/1.1/DTD/svg11.dtd">
<svg xmlns="http://www.w3.org/2000/svg" version="1.1" viewBox="45.00 85.00 675.00 440.00">
<path fill="#6946a5" d="
  M 384.09 94.53
  L 467.48 136.23
  A 0.32 0.32 0.0 0 1 467.49 136.80
  L 384.13 183.69
  A 0.32 0.32 0.0 0 1 383.81 183.69
  L 300.43 136.79
  A 0.32 0.32 0.0 0 1 300.44 136.22
  L 383.81 94.53
  A 0.32 0.32 0.0 0 1 384.09 94.53
  Z"
/>
<path fill="#36495d" d="
  M 357.30 191.03
  L 266.89 241.45
  A 0.32 0.32 0.0 0 1 266.57 241.44
  L 188.39 192.79
  A 0.32 0.32 0.0 0 1 188.41 192.23
  L 278.82 147.03
  A 0.32 0.32 0.0 0 1 279.12 147.03
  L 357.30 190.47
  A 0.32 0.32 0.0 0 1 357.30 191.03
  Z"
/>
<path fill="#36495d" d="
  M 490.86 147.03
  L 581.28 192.24
  A 0.31 0.31 0.0 0 1 581.31 192.78
  L 503.12 241.44
  A 0.31 0.31 0.0 0 1 502.80 241.45
  L 412.39 191.02
  A 0.31 0.31 0.0 0 1 412.39 190.48
  L 490.57 147.04
  A 0.31 0.31 0.0 0 1 490.86 147.03
  Z"
/>
<path fill="#6946a5" d="
  M 229.64 260.30
  L 124.57 318.69
  A 0.31 0.31 0.0 0 1 124.24 318.67
  L 48.33 262.78
  A 0.31 0.31 0.0 0 1 48.37 262.25
  L 152.81 210.03
  A 0.31 0.31 0.0 0 1 153.12 210.05
  L 229.66 259.77
  A 0.31 0.31 0.0 0 1 229.64 260.30
  Z"
/>
<path fill="#36495d" d="
  M 384.13 210.05
  L 472.85 262.23
  A 0.32 0.32 0.0 0 1 472.87 262.77
  L 384.13 321.92
  A 0.32 0.32 0.0 0 1 383.78 321.93
  L 291.61 262.79
  A 0.32 0.32 0.0 0 1 291.62 262.24
  L 383.81 210.05
  A 0.32 0.32 0.0 0 1 384.13 210.05
  Z"
/>
<path fill="#6946a5" d="
  M 615.19 210.03
  L 719.63 262.25
  A 0.31 0.31 0.0 0 1 719.67 262.78
  L 643.76 318.67
  A 0.31 0.31 0.0 0 1 643.43 318.69
  L 538.36 260.30
  A 0.31 0.31 0.0 0 1 538.34 259.77
  L 614.88 210.05
  A 0.31 0.31 0.0 0 1 615.19 210.03
  Z"
/>
<path fill="#6946a5" d="
  M 352.09 339.77
  L 242.43 407.67
  A 0.32 0.32 0.0 0 1 242.07 407.65
  L 151.58 339.79
  A 0.32 0.32 0.0 0 1 151.62 339.26
  L 257.93 279.01
  A 0.32 0.32 0.0 0 1 258.26 279.01
  L 352.09 339.23
  A 0.32 0.32 0.0 0 1 352.09 339.77
  Z"
/>
<path fill="#6946a5" d="
  M 510.01 279.01
  L 616.31 339.25
  A 0.32 0.32 0.0 0 1 616.35 339.78
  L 525.90 407.66
  A 0.32 0.32 0.0 0 1 525.54 407.67
  L 415.85 339.77
  A 0.32 0.32 0.0 0 1 415.85 339.23
  L 509.68 279.01
  A 0.32 0.32 0.0 0 1 510.01 279.01
  Z"
/>
<path fill="#6946a5" d="
  M 493.89 430.77
  L 384.16 514.39
  A 0.32 0.32 0.0 0 1 383.78 514.39
  L 274.05 430.77
  A 0.32 0.32 0.0 0 1 274.06 430.25
  L 383.79 357.10
  A 0.32 0.32 0.0 0 1 384.15 357.10
  L 493.88 430.25
  A 0.32 0.32 0.0 0 1 493.89 430.77
  Z"
/>
</svg>
