<?xml version="1.0" encoding="UTF-8"?>
<svg width="539px" height="498px" viewBox="0 0 539 498" version="1.1" xmlns="http://www.w3.org/2000/svg" xmlns:xlink="http://www.w3.org/1999/xlink">
    <title>Artboard</title>
    <defs>
        <linearGradient x1="66.8660315%" y1="87.3076574%" x2="4.45296118e-15%" y2="26.5743689%" id="linearGradient-1">
            <stop stop-color="#CAA1FE" offset="0%"></stop>
            <stop stop-color="#F8D7FF" offset="100%"></stop>
        </linearGradient>
        <path d="M232.86,0.2 L234.562347,0.251685926 C242.417778,0.512355556 249.069333,1.07733333 256.2,3.28 C256.522104,3.38074456 256.741029,3.67669829 256.74,4.01 L256.76,49.75 C256.758626,49.9782619 256.642815,50.1906062 256.451657,50.3153619 C256.260499,50.4401176 256.019499,50.4606392 255.81,50.37 C212.42,31.26 168,60.59 168.79,107.75 C169.19,131.56 184.58,153.27 206.15,162.62 C216.855102,167.251537 237.599478,167.268103 248.809829,166.446399 C252.01482,166.211477 254.452954,165.563118 255.644536,165.20905 C309.081417,139.963076 327.211868,71.782971 301.17,18.81 C301.062686,18.5855803 301.107658,18.3179617 301.282433,18.1409465 C301.457208,17.9659354 301.724232,17.9155532 301.95,18.02 C310.32,22.12 319.59,26 327.16,30.35 C348.594465,42.6795597 367.795652,57.8873537 384.76356,75.973382 L388.617776,80.100814 C397.441592,89.4976713 414.862333,107.6974 440.88,134.7 C447.05,141.1 453.91,148.76 460.56,155.68 C478.7,174.56 496.826667,193.453333 514.94,212.36 C522.54,220.3 530.17,229.01 537.8,237.31 C538.086667,237.623333 538.08,237.933333 537.78,238.24 C530.201538,245.975385 524.013318,253.740463 517.898612,261.474398 L515.861293,264.05114 C509.406966,272.20664 502.871538,280.319909 494.70641,288.319396 C492.96641,290.019396 491.193076,291.689396 489.38641,293.329396 C489.139743,293.556063 488.849743,293.669396 488.51641,293.669396 L402.81647,293.60531 C385.961564,293.643367 371.126822,293.666769 358.312245,293.669188 L356.13525,293.669396 L338.755822,293.660242 C326.684215,293.643614 317.251962,293.604925 310.459062,293.544176 L310,293.54 C273.53,293.2 239.99,271.6 222.18,239.83 C216.538944,229.756686 212.632678,219.179772 210.461201,208.099259 C191.37959,204.950887 174.18205,196.457859 159.24,183.46 C139.09,165.93 128.54,141.39 125.83,114.61 C122.83,84.95 133.8,55.13 153.67,33.18 C173.14,11.67 203.87,-0.6 232.86,0.2 Z M184.014746,223.77 C184.381508,223.77 184.596507,223.959741 184.659742,224.339224 C188.880672,249.544852 200.623393,270.366459 218.142623,287.812669 C218.452474,288.118918 218.648502,288.405194 218.730707,288.671498 C218.788699,288.854383 218.76,289.055474 218.652405,289.211831 C218.545252,289.368188 218.37318,289.460704 218.190049,289.460422 L1.26271747,289.77 C1.14196671,289.77 1.02616159,289.719498 0.940777909,289.629603 C0.855394229,289.539708 0.807426177,289.417784 0.807426177,289.290654 L0.76,224.558924 C0.76,224.421199 0.81196539,224.289116 0.904464377,224.191729 C0.996963364,224.094343 1.12241891,224.039632 1.25323224,224.039632 L184.014746,223.77 Z M339.460697,162.668978 C332.975299,180.391161 341.874289,199.938352 359.337148,206.328851 C376.800007,212.71935 396.213906,203.533205 402.699303,185.811022 C409.184701,168.088839 400.285711,148.541648 382.822852,142.151149 C365.359993,135.76065 345.946094,144.946795 339.460697,162.668978 Z M89.67,51.11 C89.8650284,51.1437841 90.0080769,51.3120765 90.01,51.51 L90.02,181.71 C90.02,181.975097 89.8050967,182.19 89.54,182.19 L7.77,182.31 C7.67357883,182.31 7.58257514,182.265437 7.52378604,182.189011 C7.46499694,182.112585 7.44511696,182.013155 7.47,181.92 C13.89,156.2 24.25,131.99 38.29,109.55 C40.6433333,105.796667 45.55,98.9933333 53.01,89.14 C55.73,85.5533333 58.6566667,82.0566667 61.79,78.65 C70.5,69.16 79.13,59.84 88.88,51.39 C89.1466667,51.1633333 89.41,51.07 89.67,51.11 Z M237.216722,126.660674 C237.423179,126.785366 237.549542,127.00881 237.55,127.25 L236.54,126.64 C236.753684,126.528143 237.010265,126.535982 237.216722,126.660674 Z M427.847965,324.902409 L482.107965,324.912411 C482.272885,324.91134 482.429252,324.985694 482.532516,325.114286 C482.63578,325.242879 482.674618,325.411612 482.637965,325.572411 C463.177965,410.302411 389.29,473.36 303.83,491.14 C282.72,495.53 259.95,498.27 239.26,497.18 C182.12,494.16 127.66,470.81 84.16,434.31 C83.3733333,433.65 83.49,433.32 84.51,433.32 C157.963333,433.226667 231.293333,433.21 304.5,433.27 C326.64,433.29 346.3,428.33 364.82,416.93 C400.02,395.25 424.387965,366.982411 427.117965,325.582411 C427.144294,325.19889 427.463543,324.902409 427.847965,324.902409 Z M289.75,330.149749 C294.63,330.13 300.143333,331.306667 306.29,333.68 C317.036667,337.82 325.643333,344.643333 332.11,354.15 C339.73,365.356667 342.93,378.236667 341.71,392.79 C341.683333,393.076667 341.53,393.22 341.25,393.22 L35.71,393.3 C35.3833333,393.3 35.1466667,393.156667 35,392.87 C28.9,381.02 26.24,368.01 31.39,355.21 C37.66,339.63 51.53,330.58 68.73,330.49 C142.4,330.07 216.08,330.45 289.75,330.149749 Z" id="path-2"></path>
    </defs>
    <g id="Artboard" stroke="none" stroke-width="1" fill="none" fill-rule="evenodd">
        <g id="Combined-Shape" fill-rule="nonzero">
            <use fill="#2B2B2B" xlink:href="#path-2"></use>
            <use fill="url(#linearGradient-1)" xlink:href="#path-2"></use>
        </g>
    </g>
</svg>